<svg width="34" height="34" viewBox="0 0 34 34" fill="none" xmlns="http://www.w3.org/2000/svg">
<path d="M8.92411 9.91178V14.8063V14.8065H8.77411L8.92411 9.91178ZM8.92411 9.91178L21.8947 22.8823H17.0001H16.9999V23.0323C15.1365 23.0298 13.325 23.6454 11.8489 24.7828L8.92411 9.91178ZM5.53838 31.752L5.5384 31.752C5.66937 31.8829 5.84697 31.9564 6.03216 31.9564C6.21735 31.9564 6.39495 31.8829 6.52592 31.752L6.52594 31.752L7.67734 30.6006L10.5682 33.4909C10.9901 33.9127 11.5622 34.1497 12.1588 34.1497C12.7553 34.1497 13.3275 33.9127 13.7493 33.4909C14.1712 33.069 14.4081 32.4969 14.4081 31.9003C14.4081 31.3038 14.1712 30.7316 13.7493 30.3098L13.6433 30.4158L13.7493 30.3098L10.8585 27.4195L11.8771 26.4013L11.8774 26.401C12.5484 25.7261 13.3466 25.1911 14.2259 24.8269C15.1051 24.4626 16.0478 24.2765 16.9995 24.2791H16.9999H23.5806H23.5806C23.7187 24.2791 23.8537 24.2381 23.9686 24.1614C24.0834 24.0846 24.1729 23.9756 24.2257 23.848C24.2786 23.7204 24.2924 23.58 24.2655 23.4445C24.2385 23.3091 24.172 23.1846 24.0744 23.087L24.0744 23.087L8.71949 7.73206L8.71948 7.73204C8.62181 7.6344 8.49738 7.56791 8.36193 7.54097C8.22647 7.51404 8.08607 7.52787 7.95848 7.58072C7.83088 7.63356 7.72182 7.72305 7.64508 7.83788C7.56833 7.9527 7.52736 8.0877 7.52733 8.2258V8.22583L7.52733 14.8065L7.52733 14.8069C7.52992 15.7586 7.34377 16.7014 6.97964 17.5807C6.61551 18.46 6.08063 19.2584 5.40595 19.9296L5.40568 19.9299L0.0545003 25.2805L0.0544786 25.2805C-0.0764491 25.4115 -0.15 25.5891 -0.15 25.7743C-0.15 25.9595 -0.0764487 26.1371 0.0544786 26.268L0.0544948 26.2681L5.53838 31.752ZM10.803 25.5004L8.22573 28.0771L3.72939 23.5807L6.30635 21.0043L10.803 25.5004ZM25.226 -0.15H25.2258C23.4607 -0.15 21.7353 0.373397 20.2677 1.354C18.8002 2.33461 17.6563 3.72838 16.9809 5.35907C16.3054 6.98976 16.1287 8.78412 16.473 10.5153C16.8174 12.2464 17.6673 13.8365 18.9154 15.0846C20.1635 16.3327 21.7536 17.1826 23.4847 17.527C25.2159 17.8713 27.0102 17.6946 28.6409 17.0191C30.2716 16.3437 31.6654 15.1998 32.646 13.7323C33.6266 12.2647 34.15 10.5393 34.15 8.77422V8.77405C34.1472 6.4081 33.2061 4.13987 31.5331 2.46689C29.8601 0.793915 27.5919 -0.147195 25.226 -0.15ZM12.7617 31.2973C12.7618 31.2973 12.7618 31.2973 12.7618 31.2973C12.881 31.4166 12.9622 31.5686 12.9951 31.734C13.028 31.8994 13.0111 32.0709 12.9465 32.2267C12.882 32.3826 12.7727 32.5158 12.6325 32.6095C12.4922 32.7032 12.3274 32.7533 12.1587 32.7533C11.9326 32.7526 11.7158 32.6627 11.5555 32.5031L8.66489 29.613L9.87089 28.407L12.7617 31.2973ZM11.8625 24.5842L7.22165 19.9434L11.8625 24.5842ZM2.74183 24.5683L7.23816 29.0646L6.03216 30.2706L1.53583 25.7743L2.74183 24.5683ZM25.2256 16.3017C23.7369 16.3016 22.2816 15.8602 21.0438 15.0331C19.8059 14.2059 18.8411 13.0303 18.2713 11.6549C17.7016 10.2794 17.5525 8.76587 17.843 7.30569C18.1334 5.84551 18.8503 4.50425 19.9031 3.45152C20.9558 2.39878 22.2971 1.68186 23.7572 1.39142C25.2174 1.10097 26.7309 1.25004 28.1064 1.81977C29.4819 2.38951 30.6575 3.35432 31.4846 4.5922C32.3117 5.83004 32.7532 7.28533 32.7532 8.77406C32.7511 10.7699 31.9573 12.6833 30.5461 14.0945C29.1348 15.5058 27.2214 16.2995 25.2256 16.3017Z" fill="#121212" stroke="#121212" stroke-width="0.3"/>
<path d="M27.4193 7.82764H27.4194C27.8829 7.82764 28.336 7.69019 28.7214 7.43268C29.1068 7.17517 29.4072 6.80915 29.5846 6.38092C29.7619 5.9527 29.8083 5.48148 29.7179 5.02688C29.6275 4.57227 29.4043 4.15469 29.0765 3.82694C28.7488 3.49919 28.3312 3.27599 27.8766 3.18556C27.422 3.09513 26.9508 3.14154 26.5226 3.31892C26.0943 3.4963 25.7283 3.79668 25.4708 4.18207C25.2133 4.56747 25.0758 5.02057 25.0758 5.48408L25.0759 5.48632C25.0786 5.67047 25.1033 5.8535 25.1493 6.03154L23.4909 7.02578C23.1762 6.74538 22.7911 6.55453 22.3758 6.4744C21.9222 6.38688 21.4529 6.43537 21.0267 6.6138C20.6006 6.79223 20.2367 7.09262 19.9808 7.47724C19.7248 7.86185 19.5883 8.31353 19.5883 8.77552C19.5883 9.2375 19.7248 9.68918 19.9808 10.0738C20.2367 10.4584 20.6006 10.7588 21.0267 10.9372C21.4529 11.1157 21.9222 11.1642 22.3758 11.0766C22.7911 10.9965 23.1762 10.8057 23.4909 10.5253L25.1484 11.5196C25.1028 11.6969 25.0785 11.8792 25.0759 12.0626H25.0758L25.0758 12.0643C25.074 12.6073 25.2604 13.1342 25.6032 13.5553C25.946 13.9764 26.4242 14.2658 26.9562 14.3743C27.4883 14.4827 28.0416 14.4035 28.5218 14.1501C29.0021 13.8967 29.3798 13.4847 29.5906 12.9843C29.8015 12.4839 29.8325 11.9259 29.6784 11.4052C29.5243 10.8845 29.1946 10.4332 28.7453 10.1282C28.2961 9.82313 27.755 9.6831 27.2142 9.73192C26.7122 9.77723 26.2392 9.98261 25.8641 10.3162L24.2079 9.32264C24.3042 8.96353 24.3042 8.58531 24.2079 8.2262L25.8638 7.23288C26.2905 7.61474 26.844 7.82739 27.4193 7.82764ZM27.4194 4.53731C27.6066 4.53731 27.7897 4.59283 27.9454 4.69687C28.1011 4.8009 28.2224 4.94877 28.2941 5.12177C28.3658 5.29477 28.3845 5.48513 28.348 5.66879C28.3114 5.85245 28.2213 6.02115 28.0889 6.15356C27.9565 6.28597 27.7878 6.37614 27.6041 6.41267C27.4204 6.4492 27.2301 6.43045 27.0571 6.35879C26.8841 6.28713 26.7362 6.16578 26.6322 6.01009C26.5281 5.85439 26.4726 5.67134 26.4726 5.48408C26.4726 5.23298 26.5724 4.99217 26.7499 4.81461C26.9275 4.63706 27.1683 4.53731 27.4194 4.53731ZM21.9355 9.7212C21.7482 9.7212 21.5652 9.66567 21.4095 9.56164C21.2538 9.4576 21.1325 9.30974 21.0608 9.13673C20.9891 8.96373 20.9704 8.77337 21.0069 8.58971C21.0434 8.40605 21.1336 8.23735 21.266 8.10495C21.3984 7.97254 21.5671 7.88236 21.7508 7.84583C21.9345 7.8093 22.1248 7.82805 22.2978 7.89971C22.4708 7.97137 22.6187 8.09272 22.7227 8.24842C22.8268 8.40411 22.8823 8.58716 22.8823 8.77442C22.8823 9.02552 22.7825 9.26634 22.605 9.44389C22.4274 9.62145 22.1866 9.7212 21.9355 9.7212ZM27.4194 11.118C27.6066 11.118 27.7897 11.1735 27.9454 11.2775C28.1011 11.3816 28.2224 11.5294 28.2941 11.7024C28.3658 11.8754 28.3845 12.0658 28.348 12.2495C28.3114 12.4331 28.2213 12.6018 28.0889 12.7342C27.9565 12.8666 27.7878 12.9568 27.6041 12.9933C27.4204 13.0299 27.2301 13.0111 27.0571 12.9395C26.8841 12.8678 26.7362 12.7464 26.6322 12.5908C26.5281 12.4351 26.4726 12.252 26.4726 12.0648C26.4726 11.8137 26.5724 11.5728 26.7499 11.3953C26.9275 11.2177 27.1683 11.118 27.4194 11.118Z" fill="#121212" stroke="#121212" stroke-width="0.3"/>
</svg>
